# xmcd CD database file
#
# Track frame offsets:
#	150
#	12087
#	23037
#	37525
#	56275
#	76887
#	95162
#	113575
#	127375
#	146662
#	164550
#	179262
#	194750
#	210862
#	228824
#
# Disc length: 3435 seconds
#
# Revision: 0
# Processed by: cddbd v1.5.1PL2 Copyright (c) Steve Scherf et al.
# Submitted via: CDex 1.51
#
DISCID=bd0d690f
DTITLE=Craig Robertson - Swinging Out Of Love
DYEAR=1900
DGENRE=Country
TTITLE0=You'll Come Running Back Again
TTITLE1=Swinging Out Of Love
TTITLE2=I Keep Holding On
TTITLE3=Cold Lips
TTITLE4=Fred The Fisherman From Mooroochydore
TTITLE5=Goodlove
TTITLE6=Stop The Burning
TTITLE7=Love Just Broke Even
TTITLE8=I Wouldn't Have It Anyother Way
TTITLE9=Hearts And Beers And Blues
TTITLE10=Can We Try Again
TTITLE11=He's Given Up
TTITLE12=The Legend
TTITLE13=Dreams
TTITLE14=Heartland
EXTD=
EXTT0=
EXTT1=
EXTT2=
EXTT3=
EXTT4=
EXTT5=
EXTT6=
EXTT7=
EXTT8=
EXTT9=
EXTT10=
EXTT11=
EXTT12=
EXTT13=
EXTT14=
PLAYORDER=
